<mxfile host="app.diagrams.net" modified="2020-08-22T16:01:01.431Z" agent="5.0 (Windows NT 10.0; Win64; x64) AppleWebKit/537.36 (KHTML, like Gecko) Chrome/84.0.4147.125 Safari/537.36 Edg/84.0.522.61" etag="3044stw9dTFuoSex_tqS" version="13.6.4" type="github">
  <diagram id="NWm6-QbwUoC_vtL_KZcC" name="Page-1">
    <mxGraphModel dx="1422" dy="772" grid="1" gridSize="10" guides="1" tooltips="1" connect="1" arrows="1" fold="1" page="1" pageScale="1" pageWidth="827" pageHeight="1169" math="0" shadow="0">
      <root>
        <mxCell id="0" />
        <mxCell id="1" parent="0" />
        <mxCell id="l0DDUTCB__N-dp9QGQrj-3" style="edgeStyle=orthogonalEdgeStyle;rounded=0;orthogonalLoop=1;jettySize=auto;html=1;exitX=0.5;exitY=1;exitDx=0;exitDy=0;endArrow=none;endFill=0;" edge="1" parent="1" source="l0DDUTCB__N-dp9QGQrj-1" target="l0DDUTCB__N-dp9QGQrj-2">
          <mxGeometry relative="1" as="geometry" />
        </mxCell>
        <mxCell id="l0DDUTCB__N-dp9QGQrj-9" style="edgeStyle=orthogonalEdgeStyle;rounded=0;orthogonalLoop=1;jettySize=auto;html=1;exitX=0.5;exitY=1;exitDx=0;exitDy=0;entryX=0.5;entryY=0;entryDx=0;entryDy=0;endArrow=none;endFill=0;" edge="1" parent="1" source="l0DDUTCB__N-dp9QGQrj-1" target="l0DDUTCB__N-dp9QGQrj-8">
          <mxGeometry relative="1" as="geometry" />
        </mxCell>
        <mxCell id="l0DDUTCB__N-dp9QGQrj-1" value="&lt;b&gt;User&lt;br&gt;&lt;br&gt;&lt;/b&gt;[Id]&lt;br&gt;[Name]" style="rounded=0;whiteSpace=wrap;html=1;" vertex="1" parent="1">
          <mxGeometry x="160" y="40" width="120" height="70" as="geometry" />
        </mxCell>
        <mxCell id="l0DDUTCB__N-dp9QGQrj-2" value="&lt;b&gt;Message&lt;br&gt;&lt;/b&gt;&lt;br&gt;[Id]&lt;br&gt;&amp;nbsp;[UserId]&lt;br&gt;[Content]&lt;br&gt;[Date]" style="rounded=0;whiteSpace=wrap;html=1;" vertex="1" parent="1">
          <mxGeometry x="70" y="210" width="120" height="110" as="geometry" />
        </mxCell>
        <mxCell id="l0DDUTCB__N-dp9QGQrj-4" value="&lt;b&gt;1&lt;/b&gt;" style="text;html=1;strokeColor=none;fillColor=none;align=center;verticalAlign=middle;whiteSpace=wrap;rounded=0;" vertex="1" parent="1">
          <mxGeometry x="130" y="160" width="40" height="20" as="geometry" />
        </mxCell>
        <mxCell id="l0DDUTCB__N-dp9QGQrj-5" value="&lt;b&gt;*&lt;/b&gt;" style="text;html=1;strokeColor=none;fillColor=none;align=center;verticalAlign=middle;whiteSpace=wrap;rounded=0;" vertex="1" parent="1">
          <mxGeometry x="130" y="190" width="40" height="20" as="geometry" />
        </mxCell>
        <mxCell id="l0DDUTCB__N-dp9QGQrj-8" value="&lt;b&gt;Follower&lt;br&gt;&lt;br&gt;&lt;/b&gt;[Id]&lt;br&gt;[UserId]&lt;br&gt;[FollowerId]&lt;br&gt;[DateFrom]" style="rounded=0;whiteSpace=wrap;html=1;" vertex="1" parent="1">
          <mxGeometry x="240" y="210" width="120" height="110" as="geometry" />
        </mxCell>
        <mxCell id="l0DDUTCB__N-dp9QGQrj-11" value="&lt;b&gt;1&lt;/b&gt;" style="text;html=1;strokeColor=none;fillColor=none;align=center;verticalAlign=middle;whiteSpace=wrap;rounded=0;" vertex="1" parent="1">
          <mxGeometry x="260" y="160" width="40" height="20" as="geometry" />
        </mxCell>
        <mxCell id="l0DDUTCB__N-dp9QGQrj-12" value="&lt;b&gt;*&lt;/b&gt;" style="text;html=1;strokeColor=none;fillColor=none;align=center;verticalAlign=middle;whiteSpace=wrap;rounded=0;" vertex="1" parent="1">
          <mxGeometry x="260" y="190" width="40" height="20" as="geometry" />
        </mxCell>
        <mxCell id="l0DDUTCB__N-dp9QGQrj-13" value="Aggregate Root" style="text;html=1;strokeColor=none;fillColor=none;align=center;verticalAlign=middle;whiteSpace=wrap;rounded=0;" vertex="1" parent="1">
          <mxGeometry x="175" y="10" width="110" height="20" as="geometry" />
        </mxCell>
      </root>
    </mxGraphModel>
  </diagram>
</mxfile>
